# Blender 4.3.0
# www.blender.org
mtllib drop.mtl
o Icosphere
v 0.001080 -0.993768 -0.000293
v 0.725228 -0.435000 0.525332
v -0.274018 -0.434444 0.849422
v -0.891652 -0.433944 -0.001012
v -0.274130 -0.436334 -0.850881
v 0.725153 -0.436112 -0.525779
v 0.286202 0.506766 0.844666
v -0.704460 0.524912 0.508369
v -0.704085 0.507447 -0.526654
v 0.284910 0.491506 -0.849362
v 0.896965 0.527697 0.003778
v 0.094233 1.632313 -0.014850
v -0.161108 -0.843044 0.499477
v 0.426454 -0.843331 0.308703
v 0.264640 -0.514730 0.808286
v 0.852026 -0.514964 -0.000147
v 0.426432 -0.843654 -0.309195
v -0.524266 -0.843015 -0.000469
v -0.685829 -0.513739 0.498881
v -0.161142 -0.843597 -0.500250
v -0.685875 -0.514827 -0.500498
v 0.264541 -0.516154 -0.809134
v 0.953543 0.026518 0.309065
v 0.953432 0.024343 -0.308610
v 0.004495 0.024424 0.997301
v 0.590990 0.024291 0.807863
v -0.944756 0.028867 0.305584
v -0.582092 0.027202 0.805169
v -0.582301 0.021792 -0.809344
v -0.944769 0.026358 -0.310714
v 0.590706 0.020012 -0.808789
v 0.004107 0.019155 -0.999905
v 0.692908 0.614045 0.500708
v -0.242320 0.606532 0.790682
v -0.823693 0.622487 -0.013998
v -0.244422 0.581657 -0.806329
v 0.693157 0.595173 -0.496999
v 0.202908 1.067636 0.472508
v 0.507485 1.097051 0.018691
v -0.307086 1.175385 0.194547
v -0.318403 1.080860 -0.307283
v 0.194727 1.011318 -0.493842
vn 0.1027 -0.9426 0.3176
vn 0.7033 -0.6577 0.2698
vn -0.2705 -0.9425 0.1964
vn -0.2704 -0.9427 -0.1954
vn 0.1029 -0.9430 -0.3166
vn 0.9075 -0.3233 0.2682
vn 0.0246 -0.3201 0.9471
vn -0.8946 -0.3135 0.3183
vn -0.5777 -0.3205 -0.7507
vn 0.5358 -0.3255 -0.7791
vn 0.8029 -0.1240 0.5830
vn -0.3097 -0.1162 0.9437
vn -0.9934 -0.1143 0.0005
vn -0.3073 -0.1211 -0.9439
vn 0.8038 -0.1241 -0.5818
vn 0.4571 0.5379 0.7083
vn -0.4907 0.6031 0.6289
vn -0.7310 0.6092 -0.3073
vn 0.0298 0.5678 -0.8226
vn 0.7961 0.5512 -0.2498
vn 0.6963 0.5056 -0.5095
vn 0.5672 0.6829 -0.4604
vn 0.4586 0.5545 -0.6944
vn -0.2093 0.5758 -0.7904
vn -0.1652 0.6849 -0.7096
vn -0.4900 0.5789 -0.6517
vn -0.7700 0.6299 -0.1013
vn -0.7035 0.7011 -0.1162
vn -0.7517 0.5957 0.2829
vn -0.2844 0.5945 0.7522
vn -0.2272 0.6921 0.6851
vn 0.0198 0.5548 0.8317
vn 0.6753 0.5520 0.4890
vn 0.5952 0.6705 0.4429
vn 0.8049 0.5445 0.2359
vn 0.8966 0.3018 -0.3242
vn 0.7967 0.1721 -0.5793
vn 0.5756 0.3081 -0.7575
vn -0.0233 0.3161 -0.9484
vn -0.3028 0.1878 -0.9344
vn -0.5294 0.3237 -0.7842
vn -0.9025 0.3243 -0.2833
vn -0.9799 0.1994 -0.0008
vn -0.9055 0.3290 0.2681
vn -0.5337 0.3325 0.7776
vn -0.3040 0.2016 0.9311
vn -0.0362 0.3206 0.9465
vn 0.5684 0.3006 0.7659
vn 0.7975 0.1645 0.5804
vn 0.9006 0.2957 0.3185
vn 0.3075 0.1182 -0.9442
vn 0.3047 -0.1848 -0.9344
vn 0.0252 -0.3247 -0.9455
vn -0.8004 0.1387 -0.5831
vn -0.7966 -0.1786 -0.5775
vn -0.8940 -0.3165 -0.3171
vn -0.7999 0.1499 0.5812
vn -0.7971 -0.1744 0.5781
vn -0.5794 -0.3146 0.7519
vn 0.3051 0.1207 0.9446
vn 0.3022 -0.1822 0.9357
vn 0.5353 -0.3235 0.7802
vn 0.9937 0.1118 -0.0006
vn 0.9828 -0.1845 0.0005
vn 0.9075 -0.3237 -0.2676
vn 0.4741 -0.6583 -0.5847
vn 0.1886 -0.7924 -0.5801
vn -0.0393 -0.6582 -0.7518
vn -0.4117 -0.6575 -0.6310
vn -0.4954 -0.7910 -0.3590
vn -0.7297 -0.6556 -0.1944
vn -0.7297 -0.6551 0.1959
vn -0.4961 -0.7899 0.3604
vn -0.4122 -0.6557 0.6326
vn 0.7033 -0.6582 -0.2685
vn 0.6111 -0.7916 0.0004
vn 0.3331 -0.9429 0.0005
vn -0.0403 -0.6564 0.7534
vn 0.1884 -0.7914 0.5816
vn 0.4738 -0.6575 0.5859
vt 0.181819 0.000000
vt 0.227273 0.078731
vt 0.136365 0.078731
vt 0.272728 0.157461
vt 0.318182 0.078731
vt 0.363637 0.157461
vt 0.909091 0.000000
vt 0.954545 0.078731
vt 0.863636 0.078731
vt 0.727273 0.000000
vt 0.772727 0.078731
vt 0.681818 0.078731
vt 0.545455 0.000000
vt 0.590909 0.078731
vt 0.500000 0.078731
vt 0.318182 0.236191
vt 0.090910 0.157461
vt 0.181819 0.157461
vt 0.136365 0.236191
vt 0.818182 0.157461
vt 0.909091 0.157461
vt 0.863636 0.236191
vt 0.636364 0.157461
vt 0.727273 0.157461
vt 0.681818 0.236191
vt 0.454546 0.157461
vt 0.545455 0.157461
vt 0.500000 0.236191
vt 0.227273 0.236191
vt 0.045455 0.236191
vt 0.772727 0.236191
vt 0.590909 0.236191
vt 0.409092 0.236191
vt 0.181819 0.314921
vt 0.272728 0.314921
vt 0.227273 0.393651
vt 0.000000 0.314921
vt 0.090910 0.314921
vt 0.045455 0.393651
vt 0.727273 0.314921
vt 0.818182 0.314921
vt 0.772727 0.393651
vt 0.545455 0.314921
vt 0.636364 0.314921
vt 0.590909 0.393651
vt 0.363637 0.314921
vt 0.454546 0.314921
vt 0.409092 0.393651
vt 0.500000 0.393651
vt 0.454546 0.472382
vt 0.681818 0.393651
vt 0.636364 0.472382
vt 0.863636 0.393651
vt 0.818182 0.472382
vt 0.909091 0.314921
vt 0.136365 0.393651
vt 0.090910 0.472382
vt 0.318182 0.393651
vt 0.272728 0.472382
vt 0.954545 0.236191
vt 1.000000 0.157461
vt 0.409092 0.078731
vt 0.363637 0.000000
s 0
f 1/1/1 14/2/1 13/3/1
f 2/4/2 14/5/2 16/6/2
f 1/7/3 13/8/3 18/9/3
f 1/10/4 18/11/4 20/12/4
f 1/13/5 20/14/5 17/15/5
f 2/4/6 16/6/6 23/16/6
f 3/17/7 15/18/7 25/19/7
f 4/20/8 19/21/8 27/22/8
f 5/23/9 21/24/9 29/25/9
f 6/26/10 22/27/10 31/28/10
f 2/4/11 23/16/11 26/29/11
f 3/17/12 25/19/12 28/30/12
f 4/20/13 27/22/13 30/31/13
f 5/23/14 29/25/14 32/32/14
f 6/26/15 31/28/15 24/33/15
f 7/34/16 33/35/16 38/36/16
f 8/37/17 34/38/17 40/39/17
f 9/40/18 35/41/18 41/42/18
f 10/43/19 36/44/19 42/45/19
f 11/46/20 37/47/20 39/48/20
f 39/48/21 42/49/21 12/50/21
f 39/48/22 37/47/22 42/49/22
f 37/47/23 10/43/23 42/49/23
f 42/45/24 41/51/24 12/52/24
f 42/45/25 36/44/25 41/51/25
f 36/44/26 9/40/26 41/51/26
f 41/42/27 40/53/27 12/54/27
f 41/42/28 35/41/28 40/53/28
f 35/41/29 8/55/29 40/53/29
f 40/39/30 38/56/30 12/57/30
f 40/39/31 34/38/31 38/56/31
f 34/38/32 7/34/32 38/56/32
f 38/36/33 39/58/33 12/59/33
f 38/36/34 33/35/34 39/58/34
f 33/35/35 11/46/35 39/58/35
f 24/33/36 37/47/36 11/46/36
f 24/33/37 31/28/37 37/47/37
f 31/28/38 10/43/38 37/47/38
f 32/32/39 36/44/39 10/43/39
f 32/32/40 29/25/40 36/44/40
f 29/25/41 9/40/41 36/44/41
f 30/31/42 35/41/42 9/40/42
f 30/31/43 27/22/43 35/41/43
f 27/22/44 8/55/44 35/41/44
f 28/30/45 34/38/45 8/37/45
f 28/30/46 25/19/46 34/38/46
f 25/19/47 7/34/47 34/38/47
f 26/29/48 33/35/48 7/34/48
f 26/29/49 23/16/49 33/35/49
f 23/16/50 11/46/50 33/35/50
f 31/28/51 32/32/51 10/43/51
f 31/28/52 22/27/52 32/32/52
f 22/27/53 5/23/53 32/32/53
f 29/25/54 30/31/54 9/40/54
f 29/25/55 21/24/55 30/31/55
f 21/24/56 4/20/56 30/31/56
f 27/22/57 28/60/57 8/55/57
f 27/22/58 19/21/58 28/60/58
f 19/21/59 3/61/59 28/60/59
f 25/19/60 26/29/60 7/34/60
f 25/19/61 15/18/61 26/29/61
f 15/18/62 2/4/62 26/29/62
f 23/16/63 24/33/63 11/46/63
f 23/16/64 16/6/64 24/33/64
f 16/6/65 6/26/65 24/33/65
f 17/15/66 22/27/66 6/26/66
f 17/15/67 20/14/67 22/27/67
f 20/14/68 5/23/68 22/27/68
f 20/12/69 21/24/69 5/23/69
f 20/12/70 18/11/70 21/24/70
f 18/11/71 4/20/71 21/24/71
f 18/9/72 19/21/72 4/20/72
f 18/9/73 13/8/73 19/21/73
f 13/8/74 3/61/74 19/21/74
f 16/6/75 17/62/75 6/26/75
f 16/6/76 14/5/76 17/62/76
f 14/5/77 1/63/77 17/62/77
f 13/3/78 15/18/78 3/17/78
f 13/3/79 14/2/79 15/18/79
f 14/2/80 2/4/80 15/18/80
