# Blender 4.3.0
# www.blender.org
mtllib head.mtl
o Cube
v 1.000000 -1.000000 1.000000
v -0.256962 -0.266983 1.000000
v 0.439521 0.384000 0.482962
v 0.445833 0.702216 0.484223
v 0.450975 0.961419 0.485249
v 0.447869 0.804857 0.484629
v -0.488515 0.390092 0.518438
v -0.485156 0.915272 0.520788
v -0.485655 0.837332 0.520439
v 0.452763 0.973119 0.485236
v -0.484736 0.985956 0.523944
v -0.495744 1.000000 0.525022
v 0.456859 1.000000 0.486276
v 0.452869 0.555820 -0.430864
v 0.461221 0.966739 -0.447672
v -0.478067 0.681261 -0.264711
v 0.450652 0.446734 -0.426402
v -0.475951 0.989464 -0.276556
v 0.466324 1.000000 -0.449845
v -0.350690 1.000000 -0.299932
v 0.449482 0.389172 -0.424048
v -0.478507 0.617097 -0.262245
v -0.480035 0.394494 -0.253689
v -0.475777 0.990608 -0.291813
v -0.481094 1.000000 -0.423459
v -0.646525 0.157849 -0.602740
v -0.624604 0.139066 -0.331561
v -0.615509 0.131273 -0.219047
v -0.557572 0.239919 0.520367
v -0.619218 0.392064 -0.228061
v -0.559217 0.388914 0.521133
v -0.556956 0.184177 0.520081
v 0.511751 0.388782 -0.435459
v 0.509219 0.329989 -0.432809
v 0.515961 0.386436 -0.034926
v 0.510055 0.225947 -0.429095
v 0.525243 0.383392 0.479685
v 0.528001 0.005894 0.477799
v 0.532396 -0.087710 0.683585
v 1.000000 -1.000000 0.950899
v 1.000000 -0.993143 1.000000
v 0.947376 -1.000000 1.000000
v -0.244873 -1.000000 -0.543332
v 0.517500 -0.869375 -0.465499
v 0.509546 -0.182162 -0.625108
v -0.652277 -0.018406 -0.699839
v 0.509110 -0.098725 -0.615052
v 0.508963 -0.070465 -0.611646
v -0.652366 0.031606 -0.693797
v 0.507390 0.230320 -0.575395
v -0.653637 0.168010 -0.690145
v -0.342662 0.183408 -0.659445
v 0.507346 0.236707 -0.575222
v 0.165836 0.215293 -0.609061
v -0.432021 -0.783436 -0.619776
v -0.634546 -0.823770 -0.593578
v 0.515109 -0.886578 -0.605489
v 0.516229 -0.957390 -0.572326
v 0.209973 -0.931278 -0.573551
v -0.290959 -0.888568 -0.575556
v -0.632805 -0.859421 -0.576924
v 0.516358 -0.974799 -0.572330
v 0.516544 -1.000000 -0.572336
v 0.297918 -1.000000 -0.573215
v -0.040099 -0.971180 -0.574568
v 0.077594 -0.952401 -0.574089
v -0.632104 -0.920704 -0.576937
v -0.632156 -0.916170 -0.576936
v -0.380837 -0.942128 -0.575931
v -0.360545 -0.930035 -0.575846
v -0.219127 -1.000000 -0.577411
v -0.501733 -1.000000 -0.579704
v -0.631796 -0.961224 -0.578889
v -0.631619 -1.000000 -0.580758
v -0.626152 -0.613156 -0.458560
v -0.626745 -0.570807 -0.459903
v -0.230567 -0.652041 -0.621551
v -0.202626 -0.571395 -0.636193
v -0.631684 -0.718957 -0.542814
v -0.624737 -0.714287 -0.455353
v -0.252312 -0.714804 -0.610156
v -0.475772 -0.720870 -0.640400
v -0.633202 -0.574992 -0.541179
v -0.639412 -0.724151 -0.640113
v -0.514557 -0.721923 -0.645650
v 0.416513 -0.692216 -0.520655
v 0.515557 -0.701437 -0.504504
v 0.516061 -0.673843 -0.465128
v 0.172132 -0.669463 -0.560508
v 0.518039 -0.565669 -0.310764
v 0.160381 -0.564199 -0.586448
v 0.163050 -0.588107 -0.580557
v 0.164311 -0.599397 -0.577774
v 0.517512 -0.515115 -0.319281
v 0.516908 -0.457218 -0.329036
v -0.641412 -0.327442 -0.608325
v -0.643388 -0.252568 -0.622290
v -0.369805 -0.413782 -0.696214
v -0.364546 -0.331929 -0.714346
v -0.395641 -0.286168 -0.711342
v -0.651928 -0.213546 -0.723412
v -0.379210 -0.560169 -0.663787
v -0.420569 -0.577094 -0.665741
v -0.638711 -0.578561 -0.610511
v -0.636191 -0.525316 -0.571416
v -0.374630 -0.488876 -0.679580
v 0.446800 -0.245075 -0.619485
v 0.510994 -0.231726 -0.565029
v 0.510131 -0.232642 -0.613384
v 0.189297 -0.406134 -0.618806
v 0.155280 -0.302305 -0.647568
v 0.515219 -0.395115 -0.397373
v 0.513810 -0.228737 -0.407287
v 0.515815 -0.465548 -0.393175
v 0.235650 -0.547615 -0.579614
v 0.535279 -0.759485 0.567716
v 0.343116 -0.860995 1.000000
v 0.471057 -1.193057 0.479172
v 0.344777 -1.035459 0.913153
v 0.532042 -0.181988 0.625173
v 0.463994 -0.137090 0.785254
v 0.534256 -0.127341 0.770711
v 0.535096 -0.726838 0.570964
v 0.366580 -0.239299 1.000000
v -0.570628 -0.658391 0.228685
v -0.567157 -0.954523 0.229660
v -0.350131 -0.513193 1.000000
v -0.689465 -1.180533 0.155170
v -0.268338 -0.995516 0.782676
v -0.576247 -0.178846 0.227107
v -0.352130 -0.327608 1.000000
v -0.570732 -0.014422 0.319545
v -0.517460 -0.016898 0.517624
v -0.512724 -0.058293 0.517248
v -0.358686 -0.271499 1.000000
v -0.563922 0.188599 0.433682
v -0.564821 0.161814 0.418624
v -0.539084 0.172112 0.519342
v -0.562514 0.186672 0.451006
v -0.556899 0.178989 0.520054
v -0.207185 -0.996054 -0.587594
v -0.128762 -0.712837 -0.390365
v -0.187804 -0.149001 -0.963594
v -0.128762 -0.061378 -0.511347
v 0.130090 -0.982998 -0.557307
v 0.070623 -0.712837 -0.390365
v 0.135614 -0.144191 -0.953826
v 0.070623 -0.061378 -0.511347
vn -0.0000 -0.0000 1.0000
vn 0.9997 -0.0199 0.0109
vn 0.0406 -0.0448 0.9982
vn 0.0382 -0.0047 0.9993
vn -0.9999 0.0064 -0.0109
vn 0.0073 1.0000 0.0058
vn -0.0000 1.0000 -0.0000
vn -0.1804 -0.0365 -0.9829
vn -0.7874 -0.6163 -0.0122
vn 0.9885 -0.1510 0.0100
vn 0.0699 -0.9948 -0.0738
vn -0.0698 0.9948 0.0745
vn -0.0164 0.9998 0.0055
vn -0.0000 -1.0000 -0.0000
vn 1.0000 -0.0000 -0.0000
vn -0.0404 0.9092 0.4144
vn -0.1280 0.9822 -0.1372
vn 0.9990 -0.0435 -0.0108
vn -0.0609 0.9909 0.1201
vn 0.0805 0.1197 -0.9895
vn 0.1367 -0.2226 -0.9653
vn -0.9967 -0.0114 0.0798
vn -0.1560 0.9807 -0.1179
vn 0.0969 0.0275 -0.9949
vn 0.9998 0.0074 -0.0180
vn 0.0081 0.0482 -0.9988
vn 0.0040 0.0003 -1.0000
vn -0.0326 -0.4243 -0.9049
vn -0.0201 0.9985 -0.0517
vn 0.0194 -0.9986 0.0499
vn -0.3836 -0.0346 -0.9228
vn 0.2029 -0.9715 0.1227
vn 0.1676 0.8063 -0.5672
vn 0.6053 -0.1261 -0.7860
vn 0.6053 -0.1261 -0.7859
vn -0.2428 -0.9118 -0.3313
vn -0.3543 -0.1805 -0.9176
vn -0.2026 0.5858 -0.7847
vn 0.5624 -0.0444 -0.8256
vn 0.1912 -0.9814 0.0152
vn 0.1982 -0.9186 0.3419
vn 0.9162 -0.0346 0.3992
vn 0.9110 -0.2077 0.3562
vn -0.9599 -0.1122 0.2568
vn -0.3617 -0.9294 -0.0740
vn -0.8800 -0.0087 0.4749
vn -0.9609 -0.0104 0.2766
vn -0.9969 -0.0008 -0.0785
vn 0.0416 -0.9815 -0.1869
vn -0.9693 0.1180 0.2159
vn -0.0089 0.9819 -0.1891
vn 0.9752 0.0894 0.2027
vn -0.0525 -0.5609 0.8262
vn 0.0973 -0.4057 -0.9088
vn -0.0000 0.1826 0.9832
vn -0.9999 0.0063 -0.0109
vn 0.9998 0.0074 -0.0179
vn 0.9986 -0.0371 0.0364
vn 0.9894 -0.1364 -0.0495
vn 0.9989 -0.0228 0.0413
vn 0.0040 0.0002 -1.0000
vn 0.0193 -0.9986 0.0499
vn -0.2144 -0.4369 0.8736
vn -0.2164 -0.4313 0.8759
vn 0.9323 -0.1540 0.3272
vn -0.9028 -0.2944 0.3135
vn -0.8314 0.2947 0.4711
vn -0.8866 0.4577 0.0671
vn -0.1266 -0.9436 0.3058
vn -0.1068 -0.9320 0.3465
vn 0.0019 -0.9712 -0.2381
vn 0.0327 -0.9725 -0.2306
vn 0.0007 -0.9836 -0.1806
vn -0.0142 -0.9659 -0.2587
vn -0.9919 0.0232 0.1250
vn -0.0000 0.9829 -0.1840
vn 0.9897 0.0261 0.1405
vn -0.0000 -0.5257 0.8507
vn 0.0336 -0.4273 -0.9035
vt 0.375000 0.750000
vt 0.375857 0.750000
vt 0.375000 0.756578
vt 0.000000 0.000000
vt 0.692893 0.685785
vt 0.691710 0.568769
vt 0.793836 0.587509
vt 0.368422 0.750000
vt 0.375000 0.743862
vt 0.466627 0.907120
vt 0.459049 0.919016
vt 0.435851 0.918766
vt 0.179148 0.653643
vt 0.287240 0.553348
vt 0.317078 0.692973
vt 0.625000 0.000000
vt 0.375000 0.250000
vt 0.375000 0.000000
vt 0.625000 0.250000
vt 0.375000 0.500000
vt 0.625000 0.750000
vt 0.625000 1.000000
vt 0.375000 1.000000
vt 0.125000 0.500000
vt 0.125000 0.750000
vt 0.875000 0.500000
vt 0.625000 0.500000
vt 0.810137 0.572068
vt 0.811968 0.690628
vt 0.375000 0.918111
vt 0.375000 0.832766
vt 0.392375 0.832110
vt 0.470088 0.829178
vt 0.466063 0.919836
vt 0.292234 0.750000
vt 0.206889 0.750000
vt 0.171048 0.552405
vt 0.187283 0.552537
vt 0.219391 0.557084
vt 0.222609 0.552824
vt 0.314568 0.553458
vt 0.875000 0.750000
s 0
f 1/1/1 41/2/1 42/3/1
f 6/4/2 15/4/2 5/4/2
f 13/4/3 12/4/3 11/4/3
f 6/4/4 5/4/4 8/4/4
f 11/4/5 18/4/5 8/4/5
f 35/4/6 33/4/6 21/4/6
f 13/5/7 19/6/7 20/7/7
f 20/4/8 14/4/8 16/4/8
f 24/4/9 12/4/9 25/4/9
f 4/4/2 3/4/2 14/4/2
f 10/4/10 15/4/10 13/4/10
f 22/4/5 7/4/5 9/4/5
f 20/4/11 24/4/11 25/4/11
f 36/4/12 53/4/12 54/4/12
f 30/4/13 7/4/13 23/4/13
f 133/4/4 38/4/4 3/4/4
f 42/8/14 40/9/14 1/1/14
f 40/9/15 41/2/15 1/1/15
f 23/4/8 17/4/8 21/4/8
f 134/4/16 135/4/16 2/4/16
f 40/4/17 42/4/17 41/4/17
f 35/4/18 34/4/18 33/4/18
f 52/4/19 51/4/19 26/4/19
f 46/4/20 48/4/20 100/4/20
f 77/4/21 78/4/21 89/4/21
f 52/4/12 27/4/12 54/4/12
f 49/4/20 48/4/20 46/4/20
f 96/4/22 83/4/22 28/4/22
f 44/4/23 59/4/23 66/4/23
f 52/4/24 54/4/24 49/4/24
f 36/4/25 35/4/25 38/4/25
f 90/4/25 94/4/25 123/4/25
f 72/4/26 74/4/26 73/4/26
f 65/4/26 64/4/26 71/4/26
f 62/4/27 59/4/27 58/4/27
f 70/4/27 61/4/27 60/4/27
f 68/4/27 69/4/27 67/4/27
f 62/4/27 63/4/27 64/4/27
f 55/4/28 61/4/28 56/4/28
f 58/4/28 59/4/28 57/4/28
f 56/4/28 85/4/28 55/4/28
f 67/4/22 73/4/22 80/4/22
f 80/4/29 82/4/29 79/4/29
f 76/4/30 83/4/30 103/4/30
f 79/4/29 85/4/29 84/4/29
f 81/4/31 75/4/31 77/4/31
f 76/4/31 77/4/31 75/4/31
f 95/4/32 115/4/32 114/4/32
f 90/4/33 86/4/33 89/4/33
f 86/4/33 88/4/33 87/4/33
f 94/4/34 93/4/34 92/4/34
f 90/4/35 93/4/35 94/4/35
f 110/4/21 91/4/21 98/4/21
f 100/4/36 97/4/36 101/4/36
f 100/4/37 98/4/37 96/4/37
f 96/4/37 98/4/37 106/4/37
f 105/4/38 103/4/38 104/4/38
f 113/4/39 110/4/39 111/4/39
f 112/4/39 115/4/39 110/4/39
f 108/4/40 107/4/40 109/4/40
f 113/4/40 107/4/40 108/4/40
f 2/10/1 131/11/1 127/12/1
f 121/4/16 39/4/16 2/4/16
f 121/4/41 120/4/41 122/4/41
f 117/4/42 116/4/42 123/4/42
f 117/4/43 118/4/43 116/4/43
f 139/4/22 32/4/22 29/4/22
f 137/4/44 132/4/44 133/4/44
f 138/4/45 139/4/45 136/4/45
f 125/4/46 126/4/46 129/4/46
f 131/4/47 125/4/47 127/4/47
f 128/4/48 73/4/48 74/4/48
f 128/13/49 64/14/49 118/15/49
f 134/4/44 133/4/44 132/4/44
f 142/16/50 143/17/50 141/18/50
f 144/19/51 147/20/51 143/17/51
f 147/20/52 146/21/52 145/1/52
f 145/1/53 142/22/53 141/23/53
f 143/24/54 145/1/54 141/25/54
f 144/26/55 146/21/55 148/27/55
f 6/4/2 14/4/2 15/4/2
f 11/4/3 8/4/3 10/4/3
f 10/4/3 13/4/3 11/4/3
f 5/4/4 10/4/4 8/4/4
f 8/4/4 9/4/4 6/4/4
f 9/4/4 7/4/4 4/4/4
f 6/4/4 9/4/4 4/4/4
f 7/4/4 31/4/4 29/4/4
f 29/4/4 32/4/4 7/4/4
f 32/4/4 4/4/4 7/4/4
f 22/4/5 9/4/5 16/4/5
f 9/4/5 8/4/5 18/4/5
f 16/4/5 9/4/5 18/4/5
f 11/4/56 24/4/56 18/4/56
f 21/4/6 3/4/6 35/4/6
f 3/4/6 37/4/6 35/4/6
f 25/28/7 12/29/7 20/7/7
f 12/29/7 13/5/7 20/7/7
f 16/4/8 18/4/8 20/4/8
f 20/4/8 19/4/8 15/4/8
f 15/4/8 14/4/8 20/4/8
f 14/4/8 17/4/8 16/4/8
f 24/4/9 11/4/9 12/4/9
f 3/4/2 21/4/2 17/4/2
f 17/4/2 14/4/2 3/4/2
f 14/4/2 6/4/2 4/4/2
f 5/4/10 15/4/10 10/4/10
f 15/4/10 19/4/10 13/4/10
f 22/4/5 23/4/5 7/4/5
f 20/4/11 18/4/11 24/4/11
f 54/4/12 27/4/12 28/4/12
f 28/4/12 36/4/12 54/4/12
f 30/4/13 31/4/13 7/4/13
f 4/4/4 32/4/4 138/4/4
f 32/4/4 140/4/4 138/4/4
f 138/4/4 133/4/4 3/4/4
f 133/4/4 134/4/4 38/4/4
f 38/4/4 37/4/4 3/4/4
f 3/4/4 4/4/4 138/4/4
f 21/4/8 33/4/8 34/4/8
f 34/4/8 36/4/8 21/4/8
f 36/4/8 28/4/8 23/4/8
f 28/4/8 30/4/8 23/4/8
f 22/4/8 16/4/8 17/4/8
f 36/4/8 23/4/8 21/4/8
f 23/4/8 22/4/8 17/4/8
f 2/4/16 39/4/16 134/4/16
f 39/4/16 38/4/16 134/4/16
f 47/4/20 45/4/20 99/4/20
f 100/4/20 101/4/20 46/4/20
f 47/4/20 99/4/20 48/4/20
f 99/4/20 100/4/20 48/4/20
f 87/4/21 44/4/21 86/4/21
f 44/4/21 43/4/21 89/4/21
f 43/4/21 72/4/21 69/4/21
f 69/4/21 70/4/21 43/4/21
f 70/4/21 60/4/21 43/4/21
f 55/4/21 85/4/21 82/4/21
f 60/4/21 55/4/21 81/4/21
f 55/4/21 82/4/21 81/4/21
f 44/4/21 89/4/21 86/4/21
f 43/4/21 60/4/21 81/4/21
f 89/4/21 43/4/21 81/4/21
f 92/4/21 93/4/21 78/4/21
f 93/4/21 89/4/21 78/4/21
f 102/4/21 106/4/21 78/4/21
f 106/4/21 92/4/21 78/4/21
f 78/4/21 103/4/21 102/4/21
f 81/4/21 77/4/21 89/4/21
f 52/4/12 26/4/12 27/4/12
f 49/4/20 50/4/20 48/4/20
f 26/4/22 51/4/22 49/4/22
f 49/4/22 46/4/22 26/4/22
f 46/4/22 101/4/22 97/4/22
f 46/4/22 97/4/22 27/4/22
f 27/4/22 26/4/22 46/4/22
f 31/4/22 30/4/22 136/4/22
f 30/4/22 28/4/22 137/4/22
f 136/4/22 30/4/22 137/4/22
f 28/4/22 27/4/22 97/4/22
f 29/4/22 31/4/22 136/4/22
f 136/4/22 139/4/22 29/4/22
f 83/4/22 137/4/22 28/4/22
f 105/4/22 104/4/22 83/4/22
f 28/4/22 97/4/22 96/4/22
f 96/4/22 105/4/22 83/4/22
f 71/4/23 43/4/23 65/4/23
f 43/4/23 44/4/23 66/4/23
f 65/4/23 43/4/23 66/4/23
f 44/4/23 57/4/23 59/4/23
f 53/4/24 50/4/24 54/4/24
f 50/4/24 49/4/24 54/4/24
f 49/4/24 51/4/24 52/4/24
f 123/4/25 47/4/25 38/4/25
f 47/4/57 48/4/57 36/4/57
f 38/4/25 47/4/25 36/4/25
f 50/4/25 53/4/25 36/4/25
f 48/4/25 50/4/25 36/4/25
f 123/4/25 38/4/25 120/4/25
f 39/4/25 122/4/25 120/4/25
f 36/4/25 34/4/25 35/4/25
f 38/4/25 39/4/25 120/4/25
f 35/4/25 37/4/25 38/4/25
f 118/4/58 63/4/58 44/4/58
f 63/4/25 62/4/25 44/4/25
f 58/4/25 57/4/25 44/4/25
f 62/4/25 58/4/25 44/4/25
f 47/4/25 123/4/25 113/4/25
f 123/4/25 116/4/25 90/4/25
f 113/4/25 123/4/25 95/4/25
f 116/4/59 118/4/59 90/4/59
f 44/4/25 87/4/25 88/4/25
f 118/4/60 44/4/60 90/4/60
f 109/4/25 45/4/25 108/4/25
f 45/4/25 47/4/25 108/4/25
f 44/4/25 88/4/25 90/4/25
f 113/4/25 108/4/25 47/4/25
f 114/4/25 112/4/25 95/4/25
f 112/4/25 113/4/25 95/4/25
f 95/4/25 123/4/25 94/4/25
f 73/4/26 67/4/26 72/4/26
f 67/4/26 69/4/26 72/4/26
f 62/4/27 66/4/27 59/4/27
f 70/4/27 68/4/27 61/4/27
f 68/4/61 70/4/61 69/4/61
f 65/4/27 66/4/27 64/4/27
f 66/4/27 62/4/27 64/4/27
f 55/4/28 60/4/28 61/4/28
f 56/4/28 84/4/28 85/4/28
f 137/4/22 83/4/22 132/4/22
f 83/4/22 76/4/22 132/4/22
f 76/4/22 75/4/22 125/4/22
f 132/4/22 76/4/22 130/4/22
f 130/4/22 76/4/22 125/4/22
f 80/4/22 79/4/22 61/4/22
f 79/4/22 84/4/22 56/4/22
f 75/4/22 80/4/22 125/4/22
f 79/4/22 56/4/22 61/4/22
f 61/4/22 68/4/22 80/4/22
f 68/4/22 67/4/22 80/4/22
f 73/4/22 126/4/22 80/4/22
f 126/4/22 125/4/22 80/4/22
f 80/4/29 81/4/29 82/4/29
f 103/4/62 78/4/62 76/4/62
f 83/4/62 104/4/62 103/4/62
f 79/4/29 82/4/29 85/4/29
f 81/4/31 80/4/31 75/4/31
f 76/4/31 78/4/31 77/4/31
f 95/4/32 91/4/32 115/4/32
f 90/4/33 88/4/33 86/4/33
f 92/4/35 91/4/35 94/4/35
f 91/4/35 95/4/35 94/4/35
f 90/4/35 89/4/35 93/4/35
f 92/4/21 106/4/21 91/4/21
f 106/4/21 98/4/21 91/4/21
f 98/4/21 99/4/21 111/4/21
f 99/4/21 45/4/21 111/4/21
f 45/4/21 109/4/21 107/4/21
f 111/4/21 110/4/21 98/4/21
f 110/4/21 115/4/21 91/4/21
f 45/4/21 107/4/21 111/4/21
f 96/4/37 97/4/37 100/4/37
f 100/4/37 99/4/37 98/4/37
f 106/4/37 102/4/37 105/4/37
f 105/4/37 96/4/37 106/4/37
f 105/4/38 102/4/38 103/4/38
f 113/4/39 112/4/39 110/4/39
f 112/4/39 114/4/39 115/4/39
f 113/4/40 111/4/40 107/4/40
f 129/30/63 119/31/63 117/32/63
f 117/32/1 124/33/1 127/12/1
f 124/33/1 2/10/1 127/12/1
f 2/10/1 135/34/1 131/11/1
f 127/12/64 129/30/64 117/32/64
f 2/4/16 124/4/16 121/4/16
f 121/4/16 122/4/16 39/4/16
f 123/4/42 120/4/42 121/4/42
f 121/4/42 124/4/42 123/4/42
f 124/4/42 117/4/42 123/4/42
f 117/4/65 119/4/65 118/4/65
f 139/4/22 140/4/22 32/4/22
f 133/4/44 138/4/44 137/4/44
f 138/4/44 136/4/44 137/4/44
f 138/4/45 140/4/45 139/4/45
f 129/4/66 127/4/66 125/4/66
f 126/4/67 128/4/67 129/4/67
f 131/4/47 130/4/47 125/4/47
f 128/4/68 126/4/68 73/4/68
f 119/35/69 129/36/69 118/15/69
f 129/36/70 128/13/70 118/15/70
f 128/13/71 74/37/71 72/38/71
f 43/39/14 71/40/14 64/14/14
f 128/13/72 72/38/72 43/39/72
f 64/14/73 63/41/73 118/15/73
f 128/13/74 43/39/74 64/14/74
f 132/4/44 130/4/44 134/4/44
f 130/4/44 131/4/44 134/4/44
f 131/4/44 135/4/44 134/4/44
f 142/16/75 144/19/75 143/17/75
f 144/19/76 148/27/76 147/20/76
f 147/20/77 148/27/77 146/21/77
f 145/1/78 146/21/78 142/22/78
f 143/24/79 147/20/79 145/1/79
f 144/26/55 142/42/55 146/21/55
