# Blender 4.3.0
# www.blender.org
mtllib nut-head.mtl
o Cube
v 1.000000 -1.000000 1.000000
v -0.256962 -0.266983 1.000000
v 0.439521 0.384000 0.482962
v 0.445833 0.702216 0.484223
v 0.450975 0.961419 0.485249
v 0.447869 0.804857 0.484629
v -0.488515 0.390092 0.518438
v -0.485156 0.915272 0.520788
v -0.485655 0.837332 0.520439
v 0.452763 0.973119 0.485236
v -0.484736 0.985956 0.523944
v -0.495744 1.000000 0.525022
v 0.456859 1.000000 0.486276
v 0.452869 0.555820 -0.430864
v 0.461221 0.966739 -0.447672
v -0.478067 0.681261 -0.264711
v 0.450652 0.446734 -0.426402
v -0.475951 0.989464 -0.276556
v 0.466324 1.000000 -0.449845
v -0.350690 1.000000 -0.299932
v 0.449482 0.389172 -0.424048
v -0.478507 0.617097 -0.262245
v -0.480035 0.394494 -0.253689
v -0.475777 0.990608 -0.291813
v -0.481094 1.000000 -0.423459
v -0.646525 0.157849 -0.602740
v -0.624604 0.139066 -0.331561
v -0.615509 0.131273 -0.219047
v -0.557572 0.239919 0.520367
v -0.619218 0.392064 -0.228061
v -0.559217 0.388914 0.521133
v -0.556956 0.184177 0.520081
v 0.511751 0.388782 -0.435459
v 0.509219 0.329989 -0.432809
v 0.515961 0.386436 -0.034926
v 0.510055 0.225947 -0.429095
v 0.525243 0.383392 0.479685
v 0.528001 0.005894 0.477799
v 0.532396 -0.087710 0.683585
v 1.000000 -1.000000 0.950899
v 1.000000 -0.993143 1.000000
v 0.947376 -1.000000 1.000000
v -0.244873 -1.000000 -0.543332
v 0.517500 -0.869375 -0.465499
v 0.509546 -0.182162 -0.625108
v -0.652277 -0.018406 -0.699839
v 0.509110 -0.098725 -0.615052
v 0.508963 -0.070465 -0.611646
v -0.652366 0.031606 -0.693797
v 0.507390 0.230320 -0.575395
v -0.653637 0.168010 -0.690145
v -0.342662 0.183408 -0.659445
v 0.507346 0.236707 -0.575222
v 0.165836 0.215293 -0.609061
v -0.432021 -0.783436 -0.619776
v -0.634546 -0.823770 -0.593578
v 0.515109 -0.886578 -0.605489
v 0.516229 -0.957390 -0.572326
v 0.209973 -0.931278 -0.573551
v -0.290959 -0.888568 -0.575556
v -0.632805 -0.859421 -0.576924
v 0.516358 -0.974799 -0.572330
v 0.516544 -1.000000 -0.572336
v 0.297918 -1.000000 -0.573215
v -0.040099 -0.971180 -0.574568
v 0.077594 -0.952401 -0.574089
v -0.632104 -0.920704 -0.576937
v -0.632156 -0.916170 -0.576936
v -0.380837 -0.942128 -0.575931
v -0.360545 -0.930035 -0.575846
v -0.219127 -1.000000 -0.577411
v -0.501733 -1.000000 -0.579704
v -0.631796 -0.961224 -0.578889
v -0.631619 -1.000000 -0.580758
v -0.626152 -0.613156 -0.458560
v -0.626745 -0.570807 -0.459903
v -0.230567 -0.652041 -0.621551
v -0.202626 -0.571395 -0.636193
v -0.631684 -0.718957 -0.542814
v -0.624737 -0.714287 -0.455353
v -0.252312 -0.714804 -0.610156
v -0.475772 -0.720870 -0.640400
v -0.633202 -0.574992 -0.541179
v -0.639412 -0.724151 -0.640113
v -0.514557 -0.721923 -0.645650
v 0.416513 -0.692216 -0.520655
v 0.515557 -0.701437 -0.504504
v 0.516061 -0.673843 -0.465128
v 0.172132 -0.669463 -0.560508
v 0.518039 -0.565669 -0.310764
v 0.160381 -0.564199 -0.586448
v 0.163050 -0.588107 -0.580557
v 0.164311 -0.599397 -0.577774
v 0.517512 -0.515115 -0.319281
v 0.516908 -0.457218 -0.329036
v -0.641412 -0.327442 -0.608325
v -0.643388 -0.252568 -0.622290
v -0.369805 -0.413782 -0.696214
v -0.364546 -0.331929 -0.714346
v -0.395641 -0.286168 -0.711342
v -0.651928 -0.213546 -0.723412
v -0.379210 -0.560169 -0.663787
v -0.420569 -0.577094 -0.665741
v -0.638711 -0.578561 -0.610511
v -0.636191 -0.525316 -0.571416
v -0.374630 -0.488876 -0.679580
v 0.446800 -0.245075 -0.619485
v 0.510994 -0.231726 -0.565029
v 0.510131 -0.232642 -0.613384
v 0.189297 -0.406134 -0.618806
v 0.155280 -0.302305 -0.647568
v 0.515219 -0.395115 -0.397373
v 0.513810 -0.228737 -0.407287
v 0.515815 -0.465548 -0.393175
v 0.235650 -0.547615 -0.579614
v 0.535279 -0.759485 0.567716
v 0.343116 -0.860995 1.000000
v 0.471057 -1.193057 0.479172
v 0.344777 -1.035459 0.913153
v 0.532042 -0.181988 0.625173
v 0.463994 -0.137090 0.785254
v 0.534256 -0.127341 0.770711
v 0.535096 -0.726838 0.570964
v 0.366580 -0.239299 1.000000
v -0.570628 -0.658391 0.228685
v -0.567157 -0.954523 0.229660
v -0.350131 -0.513193 1.000000
v -0.689465 -1.180533 0.155170
v -0.268338 -0.995516 0.782676
v -0.576247 -0.178846 0.227107
v -0.352130 -0.327608 1.000000
v -0.570732 -0.014422 0.319545
v -0.517460 -0.016898 0.517624
v -0.512724 -0.058293 0.517248
v -0.358686 -0.271499 1.000000
v -0.563922 0.188599 0.433682
v -0.564821 0.161814 0.418624
v -0.539084 0.172112 0.519342
v -0.562514 0.186672 0.451006
v -0.556899 0.178989 0.520054
v -0.207185 -0.996054 -0.587594
v -0.128762 -0.712837 -0.390365
v -0.187804 -0.149001 -0.963594
v -0.128762 -0.061378 -0.511347
v 0.130090 -0.982998 -0.557307
v 0.070623 -0.712837 -0.390365
v 0.135614 -0.144191 -0.953826
v 0.070623 -0.061378 -0.511347
vn -0.0000 -0.0000 1.0000
vn 0.9997 -0.0199 0.0109
vn 0.0406 -0.0448 0.9982
vn 0.0382 -0.0047 0.9993
vn -0.9999 0.0064 -0.0109
vn 0.0073 1.0000 0.0058
vn -0.0000 1.0000 -0.0000
vn -0.1804 -0.0365 -0.9829
vn -0.7874 -0.6163 -0.0122
vn 0.9885 -0.1510 0.0100
vn 0.0699 -0.9948 -0.0738
vn -0.0698 0.9948 0.0745
vn -0.0164 0.9998 0.0055
vn -0.0000 -1.0000 -0.0000
vn 1.0000 -0.0000 -0.0000
vn -0.0404 0.9092 0.4144
vn -0.1280 0.9822 -0.1372
vn 0.9990 -0.0435 -0.0108
vn -0.0609 0.9909 0.1201
vn 0.0805 0.1197 -0.9895
vn 0.1367 -0.2226 -0.9653
vn -0.9967 -0.0114 0.0798
vn -0.1560 0.9807 -0.1179
vn 0.0969 0.0275 -0.9949
vn 0.9998 0.0074 -0.0180
vn 0.0081 0.0482 -0.9988
vn 0.0040 0.0003 -1.0000
vn -0.0326 -0.4243 -0.9049
vn -0.0201 0.9985 -0.0517
vn 0.0194 -0.9986 0.0499
vn -0.3836 -0.0346 -0.9228
vn 0.2029 -0.9715 0.1227
vn 0.1676 0.8063 -0.5672
vn 0.6053 -0.1261 -0.7860
vn 0.6053 -0.1261 -0.7859
vn -0.2428 -0.9118 -0.3313
vn -0.3543 -0.1805 -0.9176
vn -0.2026 0.5858 -0.7847
vn 0.5624 -0.0444 -0.8256
vn 0.1912 -0.9814 0.0152
vn 0.1982 -0.9186 0.3419
vn 0.9162 -0.0346 0.3992
vn 0.9110 -0.2077 0.3562
vn -0.9599 -0.1122 0.2568
vn -0.3617 -0.9294 -0.0740
vn -0.8800 -0.0087 0.4749
vn -0.9609 -0.0104 0.2766
vn -0.9969 -0.0008 -0.0785
vn 0.0416 -0.9815 -0.1869
vn -0.9693 0.1180 0.2159
vn -0.0089 0.9819 -0.1891
vn 0.9752 0.0894 0.2027
vn -0.0525 -0.5609 0.8262
vn 0.0973 -0.4057 -0.9088
vn -0.0000 0.1826 0.9832
vn -0.9999 0.0063 -0.0109
vn 0.9998 0.0074 -0.0179
vn 0.9986 -0.0371 0.0364
vn 0.9894 -0.1364 -0.0495
vn 0.9989 -0.0228 0.0413
vn 0.0040 0.0002 -1.0000
vn 0.0193 -0.9986 0.0499
vn -0.2144 -0.4369 0.8736
vn -0.2164 -0.4313 0.8759
vn 0.9323 -0.1540 0.3272
vn -0.9028 -0.2944 0.3135
vn -0.8314 0.2947 0.4711
vn -0.8866 0.4577 0.0671
vn -0.1266 -0.9436 0.3058
vn -0.1068 -0.9320 0.3465
vn 0.0019 -0.9712 -0.2381
vn 0.0327 -0.9725 -0.2306
vn 0.0007 -0.9836 -0.1806
vn -0.0142 -0.9659 -0.2587
vn -0.9919 0.0232 0.1250
vn -0.0000 0.9829 -0.1840
vn 0.9897 0.0261 0.1405
vn -0.0000 -0.5257 0.8507
vn 0.0336 -0.4273 -0.9035
vt 0.365586 0.409093
vt 0.367175 0.408885
vt 0.367175 0.421299
vt 0.266856 0.693100
vt 0.228976 0.911100
vt 0.230225 0.692956
vt 0.886344 0.396592
vt 0.889109 0.619502
vt 0.885789 0.616961
vt 0.840745 0.399197
vt 0.877332 0.398066
vt 0.869239 0.617235
vt 0.506543 0.731217
vt 0.507374 0.916976
vt 0.490010 0.731990
vt 0.905941 0.093510
vt 0.905546 -0.000000
vt 0.920120 0.002389
vt 0.002850 0.700186
vt 0.221168 0.692767
vt 0.191504 0.884351
vt 0.641753 0.827375
vt 0.755268 0.646814
vt 0.714283 0.862774
vt 0.507642 0.920516
vt 0.509861 0.731259
vt 0.509861 0.951244
vt 0.290872 0.693193
vt 0.365326 0.693485
vt 0.325121 0.907166
vt 0.227479 0.692975
vt 0.221169 0.692767
vt 0.420280 0.913869
vt 0.367175 0.732837
vt 0.471781 0.732116
vt 0.319824 0.660014
vt 0.298288 0.640079
vt 0.319824 0.617995
vt 0.918320 0.368781
vt 0.952536 0.366653
vt 0.966487 0.445864
vt 0.768620 0.193277
vt 0.736150 0.367269
vt 0.736150 0.187018
vt 0.651443 0.627203
vt 0.653762 0.382512
vt 0.742396 0.402238
vt 0.362860 0.564610
vt 0.351377 0.552301
vt 0.362862 0.552301
vt 0.363998 0.420474
vt 0.363998 0.408885
vt 0.365586 0.409109
vt 0.780965 0.868230
vt 0.780615 0.649233
vt 0.793990 0.650510
vt 0.964571 0.880019
vt 0.847088 0.851302
vt 0.846161 0.827502
vt 0.359753 0.564610
vt 0.359753 0.581380
vt 0.351377 0.572262
vt 0.736143 0.137275
vt 0.722389 0.044409
vt 0.736150 0.043703
vt 0.987260 0.563806
vt 1.000000 0.635877
vt 0.979374 0.635925
vt 0.000784 0.458229
vt 0.271657 0.479184
vt 0.059511 0.521482
vt 0.095876 0.609860
vt 0.102879 0.590879
vt 0.189675 0.617838
vt 0.915579 0.635925
vt 0.000985 0.446787
vt 0.168697 0.027125
vt 0.226544 0.043165
vt 0.061001 0.117877
vt 0.768621 0.187018
vt 0.794853 0.259044
vt 0.795510 0.290234
vt 0.074004 0.414214
vt 0.192836 0.411026
vt 0.698068 0.045378
vt 0.647882 0.257388
vt 0.513141 0.073786
vt 0.524949 0.071748
vt 0.476688 0.279862
vt 0.030542 0.690331
vt 0.000176 0.689587
vt 0.000319 0.680636
vt 0.820301 0.317151
vt 0.827781 0.238148
vt 0.826515 0.359061
vt 0.822439 0.187018
vt 0.811619 0.258597
vt 0.818397 0.187018
vt 0.063888 0.674973
vt 0.000582 0.657050
vt 0.080365 0.665736
vt 0.000451 0.670229
vt 0.059083 0.677666
vt 0.000440 0.671282
vt 0.828292 0.187018
vt 0.048106 0.639308
vt 0.000428 0.648295
vt 0.801015 0.187019
vt 0.029232 0.623845
vt 0.307456 0.035187
vt 0.316937 0.034777
vt 0.259046 0.063457
vt 0.549489 0.820849
vt 0.589413 0.782719
vt 0.569897 0.820849
vt 0.626193 0.838647
vt 0.608065 0.832762
vt 0.600253 0.775661
vt 0.591401 0.791658
vt 0.592601 0.820849
vt 0.090426 0.624633
vt 0.002825 0.603243
vt 0.002903 0.593370
vt 0.363394 0.408885
vt 0.354382 0.496531
vt 0.351377 0.417829
vt 0.828292 0.187018
vt 0.852475 0.234632
vt 0.828292 0.286948
vt 0.855369 0.208061
vt 0.862276 0.213429
vt 0.270103 0.590691
vt 0.188274 0.601042
vt 0.188048 0.598336
vt 0.269936 0.602671
vt 0.195268 0.555156
vt 0.187570 0.592605
vt 0.064847 0.551678
vt 0.295665 0.617995
vt 0.295665 0.679461
vt 0.272645 0.673237
vt 0.001365 0.532611
vt 0.063268 0.569554
vt 0.001431 0.579619
vt 0.052023 0.590172
vt 0.000755 0.590866
vt 0.271068 0.521707
vt 0.187963 0.530054
vt 0.270522 0.560621
vt 0.205222 0.589361
vt 0.519159 0.752224
vt 0.516934 0.771790
vt 0.509861 0.758663
vt 0.549489 0.731217
vt 0.881787 0.010344
vt 0.903670 0.025100
vt 0.902070 0.068445
vt 0.891226 0.655564
vt 0.915049 0.638019
vt 0.351377 0.511784
vt 0.365195 0.542723
vt 0.444774 0.382181
vt 0.469050 0.279135
vt 0.367175 0.259534
vt 0.047382 0.274953
vt 0.047898 0.291156
vt 0.034857 0.291157
vt 0.053229 0.267389
vt 0.094556 0.244361
vt 0.095049 0.291832
vt 0.366891 0.573200
vt 0.366083 0.556291
vt 0.366891 0.552301
vt 0.245297 0.223813
vt 0.314574 0.224392
vt 0.324358 0.361030
vt 0.167621 0.408669
vt 0.211036 0.408885
vt 0.367175 0.203962
vt 0.326010 0.034382
vt 0.367175 0.565420
vt 0.590655 0.384274
vt 0.641753 0.628971
vt 0.104746 0.291909
vt 0.625000 0.000000
vt 0.375000 0.250000
vt 0.375000 0.000000
vt 0.625000 0.250000
vt 0.375000 0.500000
vt 0.625000 0.750000
vt 0.375000 0.750000
vt 0.625000 1.000000
vt 0.375000 1.000000
vt 0.275786 0.410623
vt 0.351377 0.614885
vt 0.272645 0.617995
vt 0.875000 0.500000
vt 0.625000 0.500000
vt 0.880061 0.397617
vt 0.851023 0.617553
vt 0.746491 0.619378
vt 0.816759 0.399939
vt 0.746419 0.635925
vt 0.711588 0.635925
vt 0.698557 0.635926
vt 0.435288 0.914404
vt 0.925566 0.214058
vt 0.905546 0.213671
vt 0.221168 0.914109
vt -0.000000 0.922807
vt 0.642616 0.856911
vt 0.652113 0.635925
vt 0.659786 0.637701
vt 0.364112 0.905570
vt 0.350644 0.906121
vt 0.221168 0.911652
vt 0.368216 0.912012
vt 0.295665 0.642504
vt 0.889109 0.635925
vt 0.752671 0.368039
vt 0.695685 0.631775
vt 0.697344 0.635926
vt 0.641753 0.626202
vt 0.742007 0.382181
vt 0.794870 0.635925
vt 0.808515 0.637543
vt 0.832727 0.639159
vt 0.840478 0.904560
vt 0.779766 0.900887
vt 0.729203 0.863995
vt 0.964571 0.635925
vt 0.271567 0.485650
vt 0.271298 0.504741
vt 0.066568 0.532193
vt 0.000000 0.502872
vt 0.269563 0.628726
vt 0.269002 0.668824
vt 0.246524 0.625586
vt 0.090439 0.692767
vt 0.038282 0.623961
vt 0.061770 0.586525
vt 0.272624 0.410363
vt 0.055161 0.027861
vt 0.052870 0.007351
vt 0.084784 0.006656
vt 0.096490 0.005298
vt 0.142165 0.000000
vt 0.151195 0.023761
vt 0.059289 0.091481
vt 0.000000 0.291161
vt -0.000000 0.115455
vt 0.046948 0.270889
vt 0.214952 0.036015
vt 0.227447 0.026909
vt 0.797471 0.360136
vt 0.789691 0.366340
vt 0.796094 0.317964
vt 0.801015 0.187018
vt 0.272645 0.408885
vt 0.001351 0.415214
vt 0.621895 0.002267
vt 0.628507 0.003035
vt 0.698886 0.011207
vt 0.700380 0.011241
vt 0.604158 0.291990
vt 0.626283 0.305539
vt 0.617139 0.325925
vt 0.736150 0.257460
vt 0.411223 0.013124
vt 0.441914 0.037946
vt 0.417115 0.013100
vt 0.421186 0.013084
vt 0.437696 0.005270
vt 0.591786 0.050915
vt 0.538473 0.069413
vt 0.481126 0.028673
vt 0.487633 0.037842
vt 0.590585 0.002787
vt 0.602372 0.000000
vt 0.590867 0.014079
vt 0.536436 0.054442
vt 0.552898 0.053393
vt 0.816215 0.289593
vt 0.000000 0.623831
vt 0.225485 0.062221
vt 0.235391 0.062586
vt 0.133113 0.222876
vt 0.260225 0.042951
vt 0.293119 0.035118
vt 0.261536 0.020139
vt 0.284795 0.031170
vt 0.306395 0.035182
vt 0.577959 0.731217
vt 0.626193 0.731217
vt 0.592601 0.827741
vt 0.002637 0.626820
vt 0.363394 0.511784
vt 0.270295 0.576972
vt 0.271130 0.516794
vt 0.256287 0.519161
vt 0.001340 0.514824
vt 0.270292 0.577095
vt 0.549489 0.832211
vt 0.879402 0.182812
vt 0.736150 0.187018
vt 0.737842 0.145394
vt 0.736150 0.000000
vt 0.905546 0.012031
vt 0.840478 0.681614
vt 0.894083 0.638905
vt 0.614477 0.330032
vt 0.590296 0.381296
vt 0.403871 0.362051
vt 0.049111 0.291156
vt 0.050773 0.291480
vt 0.362862 0.572194
vt 0.617192 0.731217
vt 0.472638 0.707048
vt 0.373361 0.392282
vt 0.403724 0.391163
vt 0.464131 0.396962
vt 0.469788 0.388728
vt 0.641753 0.382181
vt 0.154477 0.408443
vt 0.351377 0.408885
vt 0.875000 0.750000
s 0
usemtl Material.001
f 1/1/1 41/2/1 42/3/1
f 6/4/2 15/5/2 5/6/2
f 13/7/3 12/8/3 11/9/3
f 6/10/4 5/11/4 8/12/4
f 11/13/5 18/14/5 8/15/5
f 35/16/6 33/17/6 21/18/6
f 13/19/7 19/20/7 20/21/7
f 20/22/8 14/23/8 16/24/8
f 24/25/9 12/26/9 25/27/9
f 4/28/2 3/29/2 14/30/2
f 10/31/10 15/5/10 13/32/10
f 22/33/5 7/34/5 9/35/5
f 20/36/11 24/37/11 25/38/11
f 36/39/12 53/40/12 54/41/12
f 30/42/13 7/43/13 23/44/13
f 133/45/4 38/46/4 3/47/4
f 42/48/14 40/49/14 1/50/14
f 40/51/15 41/52/15 1/53/15
f 23/54/8 17/55/8 21/56/8
f 134/57/16 135/58/16 2/59/16
f 40/60/17 42/61/17 41/62/17
f 35/63/18 34/64/18 33/65/18
f 52/66/19 51/67/19 26/68/19
f 46/69/20 48/70/20 100/71/20
f 77/72/21 78/73/21 89/74/21
f 52/66/12 27/75/12 54/41/12
f 49/76/20 48/70/20 46/69/20
f 96/77/22 83/78/22 28/79/22
f 44/80/23 59/81/23 66/82/23
f 52/83/24 54/84/24 49/76/24
f 36/85/25 35/63/25 38/86/25
f 90/87/25 94/88/25 123/89/25
f 72/90/26 74/91/26 73/92/26
f 65/93/26 64/94/26 71/95/26
f 62/96/27 59/97/27 58/98/27
f 70/99/27 61/100/27 60/101/27
f 68/102/27 69/103/27 67/104/27
f 62/96/27 63/105/27 64/94/27
f 55/106/28 61/100/28 56/107/28
f 58/98/28 59/97/28 57/108/28
f 56/107/28 85/109/28 55/106/28
f 67/110/22 73/111/22 80/112/22
f 80/113/29 82/114/29 79/115/29
f 76/116/30 83/117/30 103/118/30
f 79/115/29 85/119/29 84/120/29
f 81/121/31 75/122/31 77/72/31
f 76/123/31 77/72/31 75/122/31
f 95/124/32 115/125/32 114/126/32
f 90/127/33 86/128/33 89/129/33
f 86/128/33 88/130/33 87/131/33
f 94/132/34 93/133/34 92/134/34
f 90/135/35 93/133/35 94/132/35
f 110/136/21 91/137/21 98/138/21
f 100/139/36 97/140/36 101/141/36
f 100/71/37 98/138/37 96/142/37
f 96/142/37 98/138/37 106/143/37
f 105/144/38 103/145/38 104/146/38
f 113/147/39 110/136/39 111/148/39
f 112/149/39 115/150/39 110/136/39
f 108/151/40 107/152/40 109/153/40
f 113/154/40 107/152/40 108/151/40
f 2/155/1 131/156/1 127/157/1
f 121/158/16 39/159/16 2/59/16
f 121/49/41 120/160/41 122/161/41
f 117/162/42 116/163/42 123/89/42
f 117/162/43 118/164/43 116/163/43
f 139/165/22 32/166/22 29/167/22
f 137/168/44 132/169/44 133/170/44
f 138/171/45 139/172/45 136/173/45
f 125/174/46 126/175/46 129/176/46
f 131/177/47 125/174/47 127/178/47
f 128/179/48 73/111/48 74/180/48
f 128/181/49 64/182/49 118/183/49
f 134/184/44 133/170/44 132/169/44
f 142/185/50 143/186/50 141/187/50
f 144/188/51 147/189/51 143/186/51
f 147/189/52 146/190/52 145/191/52
f 145/191/53 142/192/53 141/193/53
f 143/194/54 145/195/54 141/196/54
f 144/197/55 146/190/55 148/198/55
f 6/4/2 14/30/2 15/5/2
f 11/9/3 8/12/3 10/199/3
f 10/199/3 13/7/3 11/9/3
f 5/11/4 10/199/4 8/12/4
f 8/12/4 9/200/4 6/10/4
f 9/200/4 7/201/4 4/202/4
f 6/10/4 9/200/4 4/202/4
f 7/201/4 31/203/4 29/204/4
f 29/204/4 32/205/4 7/201/4
f 32/205/4 4/202/4 7/201/4
f 22/33/5 9/35/5 16/206/5
f 9/35/5 8/15/5 18/14/5
f 16/206/5 9/35/5 18/14/5
f 11/13/56 24/25/56 18/14/56
f 21/18/6 3/207/6 35/16/6
f 3/207/6 37/208/6 35/16/6
f 25/209/7 12/210/7 20/21/7
f 12/210/7 13/19/7 20/21/7
f 16/24/8 18/211/8 20/22/8
f 20/22/8 19/212/8 15/213/8
f 15/213/8 14/23/8 20/22/8
f 14/23/8 17/55/8 16/24/8
f 24/25/9 11/13/9 12/26/9
f 3/29/2 21/214/2 17/215/2
f 17/215/2 14/30/2 3/29/2
f 14/30/2 6/4/2 4/28/2
f 5/6/10 15/5/10 10/31/10
f 15/5/10 19/216/10 13/32/10
f 22/33/5 23/217/5 7/34/5
f 20/36/11 18/218/11 24/37/11
f 54/41/12 27/75/12 28/219/12
f 28/219/12 36/39/12 54/41/12
f 30/42/13 31/220/13 7/43/13
f 4/202/4 32/205/4 138/221/4
f 32/205/4 140/222/4 138/221/4
f 138/221/4 133/45/4 3/47/4
f 133/45/4 134/223/4 38/46/4
f 38/46/4 37/224/4 3/47/4
f 3/47/4 4/202/4 138/221/4
f 21/56/8 33/225/8 34/226/8
f 34/226/8 36/227/8 21/56/8
f 36/227/8 28/228/8 23/54/8
f 28/228/8 30/229/8 23/54/8
f 22/230/8 16/24/8 17/55/8
f 36/227/8 23/54/8 21/56/8
f 23/54/8 22/230/8 17/55/8
f 2/59/16 39/159/16 134/57/16
f 39/159/16 38/231/16 134/57/16
f 47/232/20 45/233/20 99/234/20
f 100/71/20 101/235/20 46/69/20
f 47/232/20 99/234/20 48/70/20
f 99/234/20 100/71/20 48/70/20
f 87/236/21 44/237/21 86/238/21
f 44/237/21 43/239/21 89/74/21
f 43/239/21 72/90/21 69/103/21
f 69/103/21 70/99/21 43/239/21
f 70/99/21 60/101/21 43/239/21
f 55/106/21 85/109/21 82/240/21
f 60/101/21 55/106/21 81/121/21
f 55/106/21 82/240/21 81/121/21
f 44/237/21 89/74/21 86/238/21
f 43/239/21 60/101/21 81/121/21
f 89/74/21 43/239/21 81/121/21
f 92/134/21 93/133/21 78/73/21
f 93/133/21 89/74/21 78/73/21
f 102/241/21 106/143/21 78/73/21
f 106/143/21 92/134/21 78/73/21
f 78/73/21 103/145/21 102/241/21
f 81/121/21 77/72/21 89/74/21
f 52/66/12 26/68/12 27/75/12
f 49/76/20 50/242/20 48/70/20
f 26/243/22 51/244/22 49/245/22
f 49/245/22 46/246/22 26/243/22
f 46/246/22 101/247/22 97/248/22
f 46/246/22 97/248/22 27/249/22
f 27/249/22 26/243/22 46/246/22
f 31/250/22 30/251/22 136/252/22
f 30/251/22 28/79/22 137/168/22
f 136/252/22 30/251/22 137/168/22
f 28/79/22 27/249/22 97/248/22
f 29/167/22 31/250/22 136/252/22
f 136/252/22 139/165/22 29/167/22
f 83/78/22 137/168/22 28/79/22
f 105/253/22 104/254/22 83/78/22
f 28/79/22 97/248/22 96/77/22
f 96/77/22 105/253/22 83/78/22
f 71/255/23 43/256/23 65/257/23
f 43/256/23 44/80/23 66/82/23
f 65/257/23 43/256/23 66/82/23
f 44/80/23 57/258/23 59/81/23
f 53/259/24 50/242/24 54/84/24
f 50/242/24 49/76/24 54/84/24
f 49/76/24 51/260/24 52/83/24
f 123/89/25 47/261/25 38/86/25
f 47/261/57 48/262/57 36/85/57
f 38/86/25 47/261/25 36/85/25
f 50/263/25 53/264/25 36/85/25
f 48/262/25 50/263/25 36/85/25
f 123/89/25 38/86/25 120/265/25
f 39/266/25 122/267/25 120/265/25
f 36/85/25 34/64/25 35/63/25
f 38/86/25 39/266/25 120/265/25
f 35/63/25 37/268/25 38/86/25
f 118/164/58 63/269/58 44/270/58
f 63/269/25 62/271/25 44/270/25
f 58/272/25 57/273/25 44/270/25
f 62/271/25 58/272/25 44/270/25
f 47/261/25 123/89/25 113/274/25
f 123/89/25 116/163/25 90/87/25
f 113/274/25 123/89/25 95/275/25
f 116/163/59 118/164/59 90/87/59
f 44/270/25 87/276/25 88/277/25
f 118/164/60 44/270/60 90/87/60
f 109/278/25 45/279/25 108/280/25
f 45/279/25 47/261/25 108/280/25
f 44/270/25 88/277/25 90/87/25
f 113/274/25 108/280/25 47/261/25
f 114/281/25 112/282/25 95/275/25
f 112/282/25 113/274/25 95/275/25
f 95/275/25 123/89/25 94/88/25
f 73/92/26 67/104/26 72/90/26
f 67/104/26 69/103/26 72/90/26
f 62/96/27 66/283/27 59/97/27
f 70/99/27 68/102/27 61/100/27
f 68/102/61 70/99/61 69/103/61
f 65/93/27 66/283/27 64/94/27
f 66/283/27 62/96/27 64/94/27
f 55/106/28 60/101/28 61/100/28
f 56/107/28 84/284/28 85/109/28
f 137/168/22 83/78/22 132/169/22
f 83/78/22 76/285/22 132/169/22
f 76/285/22 75/286/22 125/174/22
f 132/169/22 76/285/22 130/287/22
f 130/287/22 76/285/22 125/174/22
f 80/112/22 79/288/22 61/289/22
f 79/288/22 84/290/22 56/291/22
f 75/286/22 80/112/22 125/174/22
f 79/288/22 56/291/22 61/289/22
f 61/289/22 68/292/22 80/112/22
f 68/292/22 67/110/22 80/112/22
f 73/111/22 126/175/22 80/112/22
f 126/175/22 125/174/22 80/112/22
f 80/113/29 81/293/29 82/114/29
f 103/118/62 78/294/62 76/116/62
f 83/117/62 104/295/62 103/118/62
f 79/115/29 82/114/29 85/119/29
f 81/121/31 80/296/31 75/122/31
f 76/123/31 78/73/31 77/72/31
f 95/124/32 91/297/32 115/125/32
f 90/127/33 88/130/33 86/128/33
f 92/134/35 91/137/35 94/132/35
f 91/137/35 95/298/35 94/132/35
f 90/135/35 89/74/35 93/133/35
f 92/134/21 106/143/21 91/137/21
f 106/143/21 98/138/21 91/137/21
f 98/138/21 99/234/21 111/148/21
f 99/234/21 45/233/21 111/148/21
f 45/233/21 109/299/21 107/300/21
f 111/148/21 110/136/21 98/138/21
f 110/136/21 115/150/21 91/137/21
f 45/233/21 107/300/21 111/148/21
f 96/142/37 97/301/37 100/71/37
f 100/71/37 99/234/37 98/138/37
f 106/143/37 102/241/37 105/144/37
f 105/144/37 96/142/37 106/143/37
f 105/144/38 102/241/38 103/145/38
f 113/147/39 112/149/39 110/136/39
f 112/149/39 114/302/39 115/150/39
f 113/154/40 111/303/40 107/152/40
f 129/304/63 119/305/63 117/306/63
f 117/306/1 124/307/1 127/157/1
f 124/307/1 2/155/1 127/157/1
f 2/155/1 135/308/1 131/156/1
f 127/157/64 129/304/64 117/306/64
f 2/59/16 124/309/16 121/158/16
f 121/158/16 122/310/16 39/159/16
f 123/89/42 120/265/42 121/311/42
f 121/311/42 124/312/42 123/89/42
f 124/312/42 117/162/42 123/89/42
f 117/162/65 119/313/65 118/164/65
f 139/165/22 140/314/22 32/166/22
f 133/170/44 138/315/44 137/168/44
f 138/315/44 136/252/44 137/168/44
f 138/171/45 140/316/45 139/172/45
f 129/176/66 127/178/66 125/174/66
f 126/175/67 128/179/67 129/176/67
f 131/177/47 130/287/47 125/174/47
f 128/179/68 126/175/68 73/111/68
f 119/317/69 129/318/69 118/183/69
f 129/318/70 128/181/70 118/183/70
f 128/181/71 74/319/71 72/320/71
f 43/321/14 71/322/14 64/182/14
f 128/181/72 72/320/72 43/321/72
f 64/182/73 63/323/73 118/183/73
f 128/181/74 43/321/74 64/182/74
f 132/169/44 130/287/44 134/184/44
f 130/287/44 131/177/44 134/184/44
f 131/177/44 135/324/44 134/184/44
f 142/185/75 144/188/75 143/186/75
f 144/188/76 148/198/76 147/189/76
f 147/189/77 148/198/77 146/190/77
f 145/191/78 146/190/78 142/192/78
f 143/194/79 147/325/79 145/195/79
f 144/197/55 142/326/55 146/190/55
